<svg id="Layer_1" data-name="Layer 1" xmlns="http://www.w3.org/2000/svg" viewBox="0 0 490 490"><defs><style>.cls-1{fill:#c1272d;}.cls-2{fill:#8c3923;}.cls-3{fill:#f15a24;}.cls-4{fill:#f0f0f0;}.cls-5{fill:#cbcbcb;}.cls-6{fill:#4f4840;}.cls-7{fill:#ffb842;}.cls-8{fill:#29abe2;}.cls-9{fill:none;}</style></defs><path class="cls-1" d="M822.17,698.56c-3.14,6.1-14.36,6.52-25.08,1h0c-10.73-5.56-16.85-15-13.68-21.06l26.25-50.67c3.13-6.07,14.36-6.47,25.09-.93h0c10.72,5.55,16.84,15,13.66,21Z" transform="translate(-686 -252)"/><path class="cls-1" d="M1032.7,698.56c3.13,6.1,14.34,6.52,25.07,1h0c10.73-5.56,16.85-15,13.68-21.06l-26.24-50.67c-3.17-6.07-14.38-6.47-25.11-.93h0c-10.71,5.55-16.84,15-13.65,21Z" transform="translate(-686 -252)"/><path class="cls-2" d="M844.53,350.46c2.58,3.75-3.26,12.16-13,18.72h0c-9.72,6.57-19.7,8.76-22.3,5L788,342.49c-2.56-3.81,3.27-12.18,13-18.76h0c9.8-6.55,19.72-8.79,22.31-5Z" transform="translate(-686 -252)"/><path class="cls-2" d="M1017.76,352c-2.6,3.77,3.26,12.17,13,18.73h0c9.77,6.54,19.74,8.76,22.34,5L1074.34,344c2.53-3.8-3.3-12.17-13-18.71h0c-9.8-6.59-19.7-8.79-22.31-5Z" transform="translate(-686 -252)"/><path class="cls-3" d="M1115.4,499.5a181.93,181.93,0,0,1-181.94,182c-100.52,0-182-81.45-182-182a182,182,0,0,1,182-182C1034,317.51,1115.4,399,1115.4,499.5Z" transform="translate(-686 -252)"/><path class="cls-4" d="M1039.7,411.19a138.86,138.86,0,1,0,32.59,89.39A138.56,138.56,0,0,0,1039.7,411.19Z" transform="translate(-686 -252)"/><path class="cls-5" d="M827.41,533.41a138.82,138.82,0,0,1,219.26-113.18q-3.32-4.65-7-9A138.82,138.82,0,1,0,853,613.67,138,138,0,0,1,827.41,533.41Z" transform="translate(-686 -252)"/><path class="cls-6" d="M936.24,416.41c0,.76-1.25,1.38-2.79,1.38h0c-1.54,0-2.82-.62-2.82-1.38v-38.9c0-.76,1.28-1.36,2.82-1.36h0c1.54,0,2.79.6,2.79,1.36Z" transform="translate(-686 -252)"/><path class="cls-6" d="M936.24,626.28c0,.77-1.25,1.39-2.79,1.39h0c-1.54,0-2.82-.62-2.82-1.39V587.4c0-.77,1.28-1.4,2.82-1.4h0c1.54,0,2.79.63,2.79,1.4Z" transform="translate(-686 -252)"/><path class="cls-6" d="M1020.22,504.7c-.76,0-1.38-1.25-1.38-2.8h0c0-1.56.62-2.79,1.38-2.79h38.9c.76,0,1.37,1.23,1.37,2.79h0c0,1.55-.61,2.8-1.37,2.8Z" transform="translate(-686 -252)"/><path class="cls-6" d="M808.32,504.7c-.74,0-1.38-1.25-1.38-2.8h0c0-1.56.64-2.79,1.38-2.79h38.9c.78,0,1.39,1.23,1.39,2.79h0c0,1.55-.61,2.8-1.39,2.8Z" transform="translate(-686 -252)"/><polygon class="cls-7" points="246.18 246.07 250.24 252.46 169.41 303.93 160.77 305.13 165.34 297.53 246.18 246.07"/><path class="cls-6" d="M933.73,487.68a13.42,13.42,0,1,1-12.57,14.22A13.44,13.44,0,0,1,933.73,487.68Z" transform="translate(-686 -252)"/><polygon class="cls-6" points="246.61 236.78 235.97 247.44 199.58 210.61 198.84 198.45 210.25 199.95 246.61 236.78"/><polygon class="cls-6" points="250.75 256.27 253.73 245.08 346.49 269.83 352.74 277.25 343.51 281.04 250.75 256.27"/><path class="cls-8" d="M892.18,311.38a35.79,35.79,0,0,0-1.61-5.35c-12.51-26.5-54.65-32.87-94.15-14.23S735,347,747.55,373.54a32.7,32.7,0,0,0,3.1,4.59Z" transform="translate(-686 -252)"/><path class="cls-8" d="M972.84,311.38a37.08,37.08,0,0,1,1.63-5.35c12.51-26.5,54.64-32.87,94.11-14.23S1130,347,1117.47,373.54a31.79,31.79,0,0,1-3.09,4.59Z" transform="translate(-686 -252)"/><rect class="cls-9" width="490" height="490"/></svg>