<svg id="Layer_1" data-name="Layer 1" xmlns="http://www.w3.org/2000/svg" viewBox="0 0 989 989"><defs><style>.cls-1{fill:#fff;}.cls-2{fill:#14161e;}.cls-3{fill:#003751;}</style></defs><rect class="cls-1" width="989" height="989" rx="490.69"/><path class="cls-2" d="M1175.15,770.87A352,352,0,0,1,933.94,876.66l-.78-72A281.27,281.27,0,0,0,1183.55,419l-60,61.27a205.57,205.57,0,0,1-53.9,187.37c-57,58.2-140.33,75.31-212.8,50.92l.49,45.92h0L859,912.06h0l.39,35.65a428.64,428.64,0,0,0,433.38-640.25l-55.16,56.35C1304.21,495.12,1283.71,660,1175.15,770.87Z" transform="translate(-431 -32)"/><path class="cls-3" d="M1079.71,125A428.6,428.6,0,0,0,765.83,922.7q8.92,3.51,18,6.6l-.87-81.16a351.31,351.31,0,0,1-107.15-71.89C536.6,640.05,534.19,416,670.39,276.86c127.3-130.06,331.31-140.66,471.05-30.3l-50.86,52A280.94,280.94,0,0,0,726.27,724.64a282.41,282.41,0,0,0,55.78,42.49l-1-94.39c-.68-.65-1.37-1.29-2-2-81-79.29-82.41-209.7-3.13-290.71s209.7-82.41,290.71-3.13a206.86,206.86,0,0,1,24.5,28.84l28.78-29.41,24.6-25.14,50.86-52,27.76-28.36,25.22-25.76q-12.24-14.25-25.8-27.52A425.78,425.78,0,0,0,1079.71,125Z" transform="translate(-431 -32)"/></svg>